<svg width="71" height="72" viewBox="0 0 71 72" fill="none" xmlns="http://www.w3.org/2000/svg">
<path d="M19.3048 24.5055L23.2475 20.1909L30.3171 23.7639L26.9862 17.0224L33.3081 10.7528M19.3048 24.5055C5.36957 25.1122 1.56287 28.0111 2.0387 28.9549M19.3048 24.5055L32.0845 33.7026M33.3081 10.7528L41.2614 20.1909M33.3081 10.7528L41.2614 3L52.2736 18.101M52.2736 18.101L34.6676 35.5616M52.2736 18.101H54.3809L62.3342 26.1234L55.4212 32.9324M34.6676 35.5616V38.1908M34.6676 35.5616L32.0845 33.7026M34.6676 38.1908L42.4849 45.6739L44.5922 43.5983M34.6676 38.1908C24.4907 38.1908 11.7223 39.5655 3.51248 35.5616M48.5082 39.7413C55.4685 40.2806 56.3522 48.4379 59.3432 51.6064C62.3342 54.7749 72.0549 48.9772 68.0442 43.584C64.0336 38.1908 61.1519 42.8424 55.4212 32.9324M48.5082 39.7413L55.4212 32.9324M48.5082 39.7413L44.5922 43.5983M2.0387 28.9549C2.51454 29.8987 3.33026 34.4728 32.0845 33.7026M2.0387 28.9549V34.7526C2.51128 35.044 3.00311 35.3132 3.51248 35.5616M3.51248 35.5616V65.6288C17.1975 73.9883 42.8928 68.258 44.5922 65.6288V43.5983M39.9698 38.1908L42.213 36.1683M44.5922 33.7026L54.1769 24.3032M7.61281 41.4267V43.5983M7.61281 47.6289V63.4041M23.7233 44.7975C13.2549 61.3816 22.4318 62.9322 23.7233 62.9322C25.1508 62.9322 34.7356 61.8535 23.7233 44.7975Z" stroke="#FFFCF4" stroke-width="3"/>
</svg>
