<svg width="67" height="71" viewBox="0 0 67 71" fill="none" xmlns="http://www.w3.org/2000/svg">
<path d="M7.63968 31.3477C10.7719 33.0368 10.0844 37.9632 7.63968 39.1597M15.4322 24.1691C22.9556 28.9777 21.3041 43.0026 15.4322 46.4086M22.919 16.0053C37.2819 24.405 34.1291 48.9042 22.919 54.854M0 69H51.1095M67 69H63.1038M63.1038 69V2H51.1095C51.1095 2 47.7612 5.41433 47.5188 8.1229C47.287 10.713 49.6016 11.861 49.7343 14.4569C49.8899 17.5005 47.3414 18.9449 47.5188 21.9874C47.6671 24.5303 49.6201 25.6363 49.7343 28.1807C49.8651 31.0927 47.4937 32.4448 47.5188 35.3592C47.5433 38.1944 49.7602 39.4915 49.7343 42.3267C49.7092 45.0828 47.3795 46.3297 47.5188 49.083C47.6396 51.4709 49.5645 52.4686 49.7343 54.854C49.9432 57.7886 47.2528 59.1722 47.5188 62.1029C47.789 65.0798 51.1095 69 51.1095 69M63.1038 69H51.1095" stroke="#FFFCF4" stroke-width="3"/>
</svg>
