<svg width="68" height="67" viewBox="0 0 68 67" fill="none" xmlns="http://www.w3.org/2000/svg">
<path d="M57.4499 52.1093V35.175C57.4497 34.8553 57.3691 34.5408 57.2154 34.2605C57.0809 34.0374 56.8792 33.8626 56.6392 33.7613C56.3879 33.6555 56.1229 33.5856 55.852 33.5536C55.5664 33.518 55.2789 33.5001 54.991 33.5H54.0999V17.142C54.2038 16.9142 54.3545 16.6462 54.5455 16.3313C54.7364 16.0164 54.9207 15.668 55.0949 15.2861C55.2691 14.9008 55.4265 14.5424 55.5639 14.2141C55.6857 13.9587 55.7573 13.6824 55.7749 13.4C55.7255 13.037 55.647 12.6785 55.5404 12.328C55.3844 11.7716 55.2089 11.2207 55.0145 10.6765C54.8167 10.117 54.6157 9.55863 54.4115 9.00147C54.2695 8.62278 54.1399 8.23956 54.0229 7.85242C53.8952 7.51998 53.677 7.22989 53.3931 7.01492C53.1143 6.80541 52.7737 6.69462 52.4249 6.70002H45.7249C45.3671 6.71481 45.0214 6.83355 44.73 7.04172C44.4436 7.23651 44.2312 7.5221 44.127 7.85242C43.9939 8.24664 43.8543 8.63865 43.7082 9.02827C43.5066 9.58288 43.3156 10.1413 43.1354 10.7033C42.9411 11.2962 42.7669 11.8456 42.6094 12.3548C42.452 12.8573 42.3749 13.2091 42.3749 13.4C42.3749 13.6446 42.4419 13.9226 42.586 14.2375C42.7233 14.5524 42.8875 14.9008 43.0818 15.2861C43.3933 15.9105 43.7161 16.5292 44.0499 17.142V33.5H43.1588C42.8621 33.4985 42.5655 33.5164 42.2711 33.5536C41.9972 33.5862 41.7309 33.6655 41.4838 33.7881C41.2526 33.9001 41.055 34.0711 40.911 34.2839C40.7552 34.554 40.6819 34.8638 40.6999 35.175V52.1093C40.6999 53.2416 40.9277 54.3069 41.38 55.3018C41.8356 56.2968 42.4453 57.1678 43.2124 57.9182C44.7781 59.451 46.8839 60.3065 49.0749 60.3C50.1905 60.3 51.2558 60.0823 52.2675 59.6468C53.2553 59.226 54.1596 58.6314 54.9374 57.8914C55.7109 57.1556 56.3333 56.276 56.7699 55.3018C57.225 54.2994 57.457 53.2101 57.4499 52.1093ZM50.7499 33.5H47.3999V16.75C47.3994 16.4855 47.3363 16.2249 47.2157 15.9896L45.8556 13.2694L46.9276 10.05H51.2223L52.2943 13.266L50.9342 15.9896C50.8136 16.2249 50.7505 16.4855 50.7499 16.75V33.5ZM44.0499 40.2V36.85H54.0999V40.2H44.0499ZM54.0999 43.55V51.925C54.1158 52.5916 53.9819 53.2533 53.708 53.8613C53.4455 54.4662 53.0729 55.0172 52.6092 55.4861C51.6696 56.42 50.3997 56.946 49.0749 56.95C48.4082 56.9669 47.7463 56.833 47.1386 56.5581C46.2255 56.1748 45.4455 55.531 44.8961 54.707C44.3468 53.883 44.0525 52.9153 44.0499 51.925V43.55H54.0999ZM20.5999 8.51572C20.6003 8.24109 20.5332 7.97058 20.4044 7.72802C20.2756 7.48545 20.0892 7.27826 19.8615 7.12471C19.6338 6.97115 19.3719 6.87594 19.0987 6.84744C18.8256 6.81895 18.5496 6.85806 18.2951 6.96132C15.6011 8.05098 13.2793 9.89595 11.6093 12.2742C9.93917 14.6524 8.99192 17.4626 8.8815 20.3666C8.77107 23.2706 9.50218 26.1446 10.9868 28.6428C12.4715 31.141 14.6464 33.157 17.25 34.4481V53.6C17.25 55.377 17.9558 57.0811 19.2123 58.3376C20.4688 59.5941 22.173 60.3 23.9499 60.3C25.7269 60.3 27.4311 59.5941 28.6876 58.3376C29.9441 57.0811 30.6499 55.377 30.6499 53.6V34.4514C33.2547 33.1613 35.4309 31.1457 36.9165 28.6473C38.402 26.149 39.1337 23.2744 39.0232 20.3698C38.9128 17.4652 37.965 14.6544 36.2939 12.2761C34.6229 9.89776 32.2999 8.05323 29.6047 6.96467C29.3503 6.86141 29.0743 6.8223 28.8012 6.85079C28.528 6.87929 28.2661 6.9745 28.0384 7.12806C27.8107 7.28161 27.6243 7.4888 27.4955 7.73137C27.3667 7.97393 27.2996 8.24444 27.2999 8.51907V20.1C27.2999 20.9885 26.947 21.8406 26.3188 22.4688C25.6905 23.0971 24.8384 23.45 23.9499 23.45C23.0615 23.45 22.2094 23.0971 21.5811 22.4688C20.9529 21.8406 20.5999 20.9885 20.5999 20.1V8.51572ZM12.225 20.9442C12.225 16.9577 14.2115 13.4402 17.25 11.3163V20.0933C17.25 21.8703 17.9558 23.5744 19.2123 24.8309C20.4688 26.0874 22.173 26.7933 23.9499 26.7933C25.7269 26.7933 27.4311 26.0874 28.6876 24.8309C29.9441 23.5744 30.6499 21.8703 30.6499 20.0933V11.3163C32.3843 12.5238 33.7602 14.1774 34.6322 16.1024C35.5042 18.0273 35.8399 20.1522 35.6037 22.2522C35.3676 24.3522 34.5685 26.3495 33.2908 28.0327C32.0131 29.716 30.3043 31.0228 28.3451 31.815C28.0364 31.9402 27.7721 32.1547 27.5859 32.431C27.3997 32.7073 27.3002 33.0328 27.2999 33.366V53.6C27.2999 54.4885 26.947 55.3406 26.3188 55.9688C25.6905 56.5971 24.8384 56.95 23.9499 56.95C23.0615 56.95 22.2094 56.5971 21.5811 55.9688C20.9529 55.3406 20.5999 54.4885 20.5999 53.6V33.366C20.5997 33.0328 20.5002 32.7073 20.314 32.431C20.1278 32.1547 19.8635 31.9402 19.5548 31.815C17.3883 30.9385 15.5331 29.4348 14.2271 27.4967C12.9211 25.5586 12.2239 23.2746 12.225 20.9375V20.9442Z" fill="white"/>
</svg>
