<svg width="70" height="71" viewBox="0 0 70 71" fill="none" xmlns="http://www.w3.org/2000/svg">
<path d="M29.8798 51.3838V61.6856C29.8664 62.0728 29.7029 62.4396 29.4237 62.7087C29.1445 62.9778 28.7715 63.1281 28.3834 63.1278H17.5474C15.7657 62.8282 14.1528 61.8951 13.0066 60.5009" stroke="white" stroke-width="3" stroke-linecap="round" stroke-linejoin="round"/>
<path d="M52.3261 32.2747L59.9629 27.1238C60.1336 27.0486 60.3181 27.0097 60.5047 27.0097C60.6913 27.0097 60.8758 27.0486 61.0465 27.1238C61.2458 27.147 61.4374 27.2147 61.6071 27.3216C61.7768 27.4286 61.9202 27.5722 62.0269 27.7419L67.9609 36.6014C68.3155 37.3137 68.5 38.0982 68.5 38.8936C68.5 39.6889 68.3155 40.4735 67.9609 41.1857M13.0068 60.5531C13.0068 60.5531 7.38241 55.6598 20.4372 42.628H26.2681L17.5476 28.257H1.5L5.88601 33.8715C5.88601 33.8715 2.9448 34.3865 2.9448 38.4558C4.4875 46.5165 7.93729 54.0926 13.0068 60.5531Z" stroke="white" stroke-width="3" stroke-linecap="round" stroke-linejoin="round"/>
<path d="M21.3659 21.5087L14.3999 18.3151C14.0563 18.1379 13.7916 17.8387 13.6579 17.4765C13.5242 17.1142 13.5312 16.7151 13.6775 16.3578L19.5599 4.61371C19.9529 3.9184 20.5024 3.32379 21.1651 2.87683C21.8278 2.42987 22.5855 2.14279 23.3783 2.03826M23.3783 2.03826C23.3783 2.03826 29.7251 2.03826 37.7748 17.491L33.5952 22.6419H50.9328L57.0732 6.46803L49.8492 8.68292C49.7442 7.56531 49.3388 6.49676 48.6757 5.59012C48.0127 4.68348 47.1167 3.97241 46.0824 3.53202C42.5258 2.35668 38.7816 1.85019 35.04 2.03826H23.3783ZM68.1672 40.67C68.1672 40.67 66.516 47.3662 49.4364 45.8209V41.3396L39.426 54.4229L48.9204 69L49.4364 62.1493C49.4364 62.1493 51.3456 64.4672 54.5964 62.1493C60.0483 55.6177 64.6115 48.3954 68.1672 40.67Z" stroke="white" stroke-width="3" stroke-linecap="round" stroke-linejoin="round"/>
</svg>
