<svg width="50" height="50" viewBox="0 0 50 50" fill="none" xmlns="http://www.w3.org/2000/svg">
<g clip-path="url(#clip0_760_12741)">
<mask id="mask0_760_12741" style="mask-type:luminance" maskUnits="userSpaceOnUse" x="0" y="0" width="50" height="50">
<path d="M50 0H0V50H50V0Z" fill="white"/>
</mask>
<g mask="url(#mask0_760_12741)">
<path d="M35.1925 36L37.6925 38.5L41.1925 34.5" stroke="#131010" stroke-width="2" stroke-linecap="round"/>
<path d="M13.6925 13.3666C12.8831 13.4524 12.0479 13.5 11.1925 13.5C11.1925 3.5 17.5258 1 20.6925 1C28.6925 1 30.6925 9.33333 30.6925 13.5C29.5258 13.6667 26.6925 13.1 24.6925 9.5C23.1042 10.6551 18.939 12.811 13.6925 13.3666ZM13.6925 13.3666C13.6925 15.6229 13.8401 17.4768 14.0947 19M14.0947 19C10.9968 19.5 9.19251 15.5 11.6925 13.5M14.0947 19C14.6519 22.3339 15.7217 24.0834 16.8789 25M27.6925 12.7396C27.6925 26 22.6925 26 20.6925 26C19.7882 26 18.2704 26.1022 16.8789 25M16.8789 25V28.5M29.8659 13.5C32.3659 15.5 30.5616 19.5 27.4637 19M16.8789 28.5L20.6925 32.5M16.8789 28.5C15.4539 28.8626 14.1632 29.2381 12.9944 29.6274C12.344 29.8441 11.7313 30.065 11.1542 30.2903M20.6925 32.5L24.6925 28.5M20.6925 32.5L24.6925 36.5L29.3537 30.2903M20.6925 32.5L16.5 36.5L11.1542 30.2903M11.1542 30.2903C-0.102237 34.6853 2.1925 40.7541 2.1925 49.5H8.6925M24.6925 28.5V24.6016M24.6925 28.5C26.5403 29.028 28.1994 29.7301 29.3537 30.2903M29.3537 30.2903C29.9484 30.579 30.4091 30.83 30.6925 31M39.1925 45V49.5H32.6925M32.6925 49.5H8.6925M32.6925 49.5V43M8.6925 49.5V40.5" stroke="#131010" stroke-width="2" stroke-linecap="round"/>
<path d="M38 45C42.9706 45 47 40.9706 47 36C47 31.0294 42.9706 27 38 27C33.0294 27 29 31.0294 29 36C29 40.9706 33.0294 45 38 45Z" stroke="#131010" stroke-width="2"/>
<path d="M38 42C41.3137 42 44 39.3137 44 36C44 32.6863 41.3137 30 38 30C34.6863 30 32 32.6863 32 36C32 39.3137 34.6863 42 38 42Z" stroke="#131010" stroke-width="2"/>
</g>
</g>
<defs>
<clipPath id="clip0_760_12741">
<rect width="50" height="50" fill="white"/>
</clipPath>
</defs>
</svg>
