<svg width="50" height="50" viewBox="0 0 50 50" fill="none" xmlns="http://www.w3.org/2000/svg">
<g clip-path="url(#clip0_760_12737)">
<path d="M25 48.5C37.9787 48.5 48.5 37.9787 48.5 25C48.5 12.0213 37.9787 1.5 25 1.5C12.0213 1.5 1.5 12.0213 1.5 25C1.5 37.9787 12.0213 48.5 25 48.5Z" stroke="#131010" stroke-width="3"/>
<path d="M25 29.5C29.6944 29.5 33.5 25.6944 33.5 21C33.5 16.3056 29.6944 12.5 25 12.5C20.3056 12.5 16.5 16.3056 16.5 21C16.5 25.6944 20.3056 29.5 25 29.5Z" stroke="#131010" stroke-width="3"/>
<path fill-rule="evenodd" clip-rule="evenodd" d="M37.7548 44.4742C36.5791 38.5035 31.3155 34 25 34C18.7542 34 13.5371 38.4047 12.2856 44.2772L9.70116 42.3009C11.7086 35.7575 17.7987 31 25 31C32.3262 31 38.5024 35.924 40.3996 42.6431L38.5 44L37.7548 44.4742Z" fill="#131010"/>
</g>
<defs>
<clipPath id="clip0_760_12737">
<rect width="50" height="50" fill="white"/>
</clipPath>
</defs>
</svg>
