<svg width="51" height="50" viewBox="0 0 51 50" fill="none" xmlns="http://www.w3.org/2000/svg">
<path d="M13.5 6.33084C7.4895 10.1431 3.5 16.8557 3.5 24.5C3.5 35.9431 12.4397 45.2982 23.7161 45.9623L26.4139 48.9599C25.946 48.9865 25.4746 49 25 49C11.469 49 0.5 38.031 0.5 24.5C0.5 15.924 4.90632 8.37721 11.5785 4H13.5V6.33084Z" fill="#131010"/>
<path d="M24 0.0200366V3.02284C24.3314 3.00767 24.6648 3 25 3C36.1786 3 45.3646 11.5312 46.4024 22.438L49.4943 25.0352C49.4981 24.8573 49.5 24.6789 49.5 24.5C49.5 10.969 38.531 0 25 0C24.6651 0 24.3317 0.00672138 24 0.0200366Z" fill="#131010"/>
<path d="M0.5 4H13.5V17H9.5V8H0.5V4Z" fill="#131010"/>
<path d="M28 8.5H24V24H13V27.5H28V8.5Z" fill="#131010"/>
<path d="M26 37.5L23.5 40L33.5 49.5L49.5 32L47 29.5L33.5 44.5L26 37.5Z" fill="#131010"/>
</svg>
