<svg width="51" height="50" viewBox="0 0 51 50" fill="none" xmlns="http://www.w3.org/2000/svg">
<g clip-path="url(#clip0_760_12677)">
<path d="M40.2617 28.8853L43.6873 25.4817C43.7467 25.4226 43.7832 25.3443 43.7902 25.2607L44.7772 13.5067C44.786 13.4026 44.7484 13.2998 44.6746 13.2255L37.8806 6.38751C37.8067 6.31322 37.7041 6.27502 37.6 6.28309L25.8399 7.19435C25.7562 7.20084 25.6777 7.2368 25.6183 7.29585L20.1826 12.6966L4.10186 28.674C3.96309 28.8119 3.96296 29.0368 4.10156 29.1763L21.6687 46.8569C21.8073 46.9964 22.0321 46.9977 22.1709 46.8599L25.6885 43.3648M33.0957 44.287L35.6542 45.6425C35.705 45.6695 35.7615 45.6837 35.8189 45.684L44.2404 45.7332C44.4046 45.7342 44.5475 45.6225 44.5859 45.463L47.4391 33.6208C47.4918 33.4021 47.33 33.1891 47.1048 33.181L39.5992 32.9097C39.4073 32.9028 39.2549 32.7447 39.255 32.5527L39.2584 26.9563C39.2585 26.7675 39.1107 26.6108 38.9221 26.5997L37.1037 26.4934C36.9635 26.4852 36.8321 26.5604 36.7684 26.6852L32.9763 34.1161M33.0957 44.287L32.9763 34.1161M33.0957 44.287L26.6665 44.2494C26.4721 44.2483 26.3139 44.091 26.3117 43.8966L26.2006 34.4361C26.1982 34.2382 26.358 34.0775 26.5559 34.0786L32.9763 34.1161M28.4669 16.5118L14.5219 30.3672M28.3371 23.6678L18.0354 33.9033M48.6898 2.44192L39.0162 12.0533M39.0162 12.0533L38.9005 15.3509C38.8938 15.5421 38.7368 15.6929 38.5454 15.6917L35.7281 15.6753C35.532 15.6741 35.3731 15.5142 35.3732 15.3181L35.3749 12.5007C35.375 12.3093 35.5267 12.1533 35.718 12.1478L39.0162 12.0533Z" stroke="#131010" stroke-width="3" stroke-linecap="round"/>
</g>
<defs>
<clipPath id="clip0_760_12677">
<rect width="50" height="50" fill="white" transform="translate(0.5)"/>
</clipPath>
</defs>
</svg>
