<svg width="50" height="50" viewBox="0 0 50 50" fill="none" xmlns="http://www.w3.org/2000/svg">
<g clip-path="url(#clip0_760_12653)">
<path d="M8.28655 31.7891L2.39824 39.3591C1.86363 40.0464 2.40188 41.0412 3.26968 40.9697L9.55952 40.4515C10.0774 40.4088 10.5417 40.77 10.6278 41.2825L11.6733 47.5064C11.8176 48.3651 12.9142 48.642 13.4488 47.9547L19.3371 40.3847M42.0506 31.7891L47.9389 39.3591C48.4735 40.0464 47.9352 41.0412 47.0674 40.9697L40.7776 40.4515C40.2597 40.4088 39.7954 40.77 39.7093 41.2825L38.6638 47.5064C38.5196 48.3651 37.4229 48.642 36.8883 47.9547L31 40.3847" stroke="#131010" stroke-width="3"/>
<path d="M44.5 21C44.5 31.7696 35.7696 40.5 25 40.5C14.2304 40.5 5.5 31.7696 5.5 21C5.5 10.2304 14.2304 1.5 25 1.5C35.7696 1.5 44.5 10.2304 44.5 21Z" stroke="#131010" stroke-width="3"/>
<path d="M38.5 21C38.5 28.4558 32.4558 34.5 25 34.5C17.5442 34.5 11.5 28.4558 11.5 21C11.5 13.5442 17.5442 7.5 25 7.5C32.4558 7.5 38.5 13.5442 38.5 21Z" stroke="#131010" stroke-width="3"/>
<path d="M25 12.9868L27.1469 16.6728C27.4295 17.1581 27.9031 17.5021 28.4519 17.6209L32.6209 18.5237L29.7787 21.7046C29.4046 22.1233 29.2237 22.68 29.2803 23.2387L29.71 27.4827L25.8065 25.7625C25.2927 25.5361 24.7073 25.5361 24.1935 25.7625L20.29 27.4827L20.7197 23.2387C20.7763 22.68 20.5954 22.1233 20.2213 21.7046L17.3791 18.5237L21.5481 17.6209C22.0969 17.5021 22.5705 17.1581 22.8531 16.6728L25 12.9868Z" stroke="#131010" stroke-width="2"/>
</g>
<defs>
<clipPath id="clip0_760_12653">
<rect width="50" height="50" fill="white"/>
</clipPath>
</defs>
</svg>
