<svg width="143" height="44" viewBox="0 0 143 44" fill="none" xmlns="http://www.w3.org/2000/svg">
<path d="M9.09327 34.6839H1V33.9295H3.15821V18.6738H1V17.9194H9.09327V18.6738H6.93507V25.8825L14.6507 18.6738H12.4924V17.9194H17.4833C17.4833 18.0126 17.4743 18.1057 17.4563 18.1988C17.4203 18.5155 17.1865 18.6738 16.7549 18.6738C16.647 18.6738 16.5301 18.6831 16.4042 18.7018C16.0445 18.7949 15.46 19.2233 14.6507 19.987L10.5501 23.8149L17.1326 33.9295H17.3754C17.7531 33.9667 17.9959 34.2182 18.1038 34.6839L12.9511 34.7118L7.79835 26.4134L6.93507 27.2237V33.9295H8.36488C8.74256 33.9667 8.98536 34.2182 9.09327 34.6839Z" fill="white"/>
<path d="M64.792 18.6738V17.9194H70.2415V18.6738H68.0833V34.5442L66.5456 34.8236L56.1592 22.2782V33.9295H57.7239C58.1016 33.9667 58.3444 34.2182 58.4523 34.6839H52.8679V33.9295H55.0261V18.6738H52.8679V17.9194H57.4271L66.9502 29.4869V18.6738H64.792Z" fill="white"/>
<path d="M70.9159 17.9194H78.8743C80.8706 17.9194 82.6152 18.413 84.108 19.4003C86.3741 20.9277 87.5071 23.2468 87.5071 26.3575C87.5071 28.7977 86.7158 30.7908 85.1331 32.3369C83.5145 33.9015 81.4552 34.6839 78.9553 34.6839H70.9159V33.9295H73.0741V18.6738H70.9159V17.9194ZM78.9553 18.6738H76.851V33.9295H78.9013C79.7466 33.9295 80.457 33.7525 81.0325 33.3986C82.5253 32.4859 83.2717 30.0923 83.2717 26.2178C83.2717 24.2806 83.0918 22.7252 82.7321 21.5517C82.1026 19.6331 80.8437 18.6738 78.9553 18.6738Z" fill="white"/>
<path d="M98.0284 17.64C100.061 17.64 101.832 18.2081 103.343 19.3444C105.447 20.9463 106.499 23.284 106.499 26.3575C106.499 28.8908 105.663 30.9771 103.99 32.6163C102.354 34.1809 100.339 34.9633 97.9475 34.9633C95.8432 34.9633 94.0087 34.3393 92.444 33.0913C90.4117 31.4521 89.3956 29.1702 89.3956 26.2458C89.3956 23.6938 90.2499 21.6076 91.9584 19.987C93.6131 18.4224 95.6364 17.64 98.0284 17.64ZM98.0284 34.153C98.8557 34.153 99.5481 33.9667 100.106 33.5942C101.544 32.6442 102.264 30.1854 102.264 26.2178C102.264 24.5414 102.129 23.135 101.859 21.9988C101.284 19.6331 99.9798 18.4503 97.9475 18.4503C97.336 18.4503 96.7874 18.5621 96.3018 18.7856C94.5213 19.5679 93.631 22.0919 93.631 26.3575C93.631 28.5928 93.8559 30.3251 94.3055 31.5545C94.9529 33.2868 96.1939 34.153 98.0284 34.153Z" fill="white"/>
<path d="M117.021 17.64C119.053 17.64 120.824 18.2081 122.335 19.3444C124.439 20.9463 125.492 23.284 125.492 26.3575C125.492 28.8908 124.655 30.9771 122.983 32.6163C121.346 34.1809 119.332 34.9633 116.94 34.9633C114.835 34.9633 113.001 34.3393 111.436 33.0913C109.404 31.4521 108.388 29.1702 108.388 26.2458C108.388 23.6938 109.242 21.6076 110.951 19.987C112.605 18.4224 114.629 17.64 117.021 17.64ZM117.021 34.153C117.848 34.153 118.54 33.9667 119.098 33.5942C120.537 32.6442 121.256 30.1854 121.256 26.2178C121.256 24.5414 121.121 23.135 120.851 21.9988C120.276 19.6331 118.972 18.4503 116.94 18.4503C116.328 18.4503 115.78 18.5621 115.294 18.7856C113.514 19.5679 112.623 22.0919 112.623 26.3575C112.623 28.5928 112.848 30.3251 113.298 31.5545C113.945 33.2868 115.186 34.153 117.021 34.153Z" fill="white"/>
<path d="M135.069 34.6839H126.975V33.9295H129.134V18.6738H126.975V17.9194H135.986C137.425 17.9194 138.648 18.2733 139.655 18.9812C140.842 19.8194 141.435 20.9277 141.435 22.3061C141.435 22.7159 141.381 23.1164 141.273 23.5076C140.842 25.0909 139.682 26.1526 137.793 26.6928L141.948 33.9574H142.299C142.389 33.9574 142.478 33.9667 142.568 33.9854C142.856 34.0412 143 34.2741 143 34.6839L138.252 34.7118L134.232 27.0281H132.91V33.9295H135.069V34.6839ZM134.367 18.6738H132.91V26.1899H134.583C135.123 26.1899 135.599 26.0502 136.013 25.7708C136.948 25.1561 137.416 24.0478 137.416 22.4458C137.416 21.9243 137.353 21.4213 137.227 20.937C136.795 19.4282 135.842 18.6738 134.367 18.6738Z" fill="white"/>
<ellipse cx="34.7224" cy="27.3663" rx="11.5253" ry="11.9368" fill="#C08B25"/>
<path d="M15.5134 0.839966C15.5134 9.68207 36.0029 12.3347 36.0029 24.2715C41.5522 24.2715 43.6865 23.3873 44.5402 26.4821M17.2209 7.47154C17.2209 14.9873 44.9671 23.3873 24.9045 33.9979C34.7223 37.9768 28.7462 40.6294 27.4656 40.6294M48.382 27.8084C36.0029 29.1347 28.3194 34.8821 36.0029 41.5137C35.6614 42.5747 33.2995 42.84 32.1612 42.84" stroke="#FFFCF4" stroke-width="1.26" stroke-linecap="round" stroke-linejoin="round"/>
</svg>
